# xmcd CD database file
#
# Track frame offsets:
#	150
#	17365
#	46022
#	65727
#	87022
#	104170
#	132797
#	152517
#
# Disc length: 2317 seconds
#
# Revision: 2
# Processed by: cddbd v1.5.1PL0 Copyright (c) Steve Scherf et al.
# Submitted via: CDex 1.51
#
DISCID=5a090b08
DTITLE=中山譲　二本松はじめ - WITH YOU
DYEAR=2001
DGENRE=Pop
TTITLE0=レッツ・ゴー
TTITLE1=時計は止めないで
TTITLE2=おそうじ洗隊キラキラピッカマン
TTITLE3=WITH YOU
TTITLE4=レッツ・ゴー　〜カラオケ〜
TTITLE5=時計は止めないで　〜カラオケ〜
TTITLE6=おそうじ洗隊キラキラピッカマン　〜カラオケ〜
TTITLE7=WITH YOU　〜カラオケ〜　
EXTD=YEAR: 2001
EXTT0=
EXTT1=
EXTT2=
EXTT3=
EXTT4=
EXTT5=
EXTT6=
EXTT7=
PLAYORDER=
